# xmcd
#
# Track frame offsets: 
#        300
#        21176
#        47647
#        75105
#        90468
#        116919
#        139610
#        160646
#        180821
#        215587
#
# Disc length: 3118 seconds
#
# Revision: 3
# Processed by: cddbd v1.5.2PL0 Copyright (c) Steve Scherf et al.
# Submitted via: ExactAudioCopy v1.0b1
#
DISCID=700c2a0a
DTITLE=Pat Travers - Lookin' Up
DYEAR=1996
DGENRE=Boogie Rock
TTITLE0=Ice Queen
TTITLE1=Lookin'Up
TTITLE2=Hypnotized
TTITLE3=Dusty Blues
TTITLE4=Too Much (Is Never Enough)
TTITLE5=Bad Little Girl
TTITLE6=Right To Complain
TTITLE7=A Good Fool Is Hard To Find
TTITLE8=Bad Feelin's Again
TTITLE9=Suburban Blues
EXTD=
EXTT0=
EXTT1=
EXTT2=
EXTT3=
EXTT4=
EXTT5=
EXTT6=
EXTT7=
EXTT8=
EXTT9=
PLAYORDER=
